<svg xmlns="http://www.w3.org/2000/svg" width="18" height="18" viewBox="0 0 18 18">
    <g fill="none" fill-rule="evenodd">
        <g fill="#000000">
            <g>
                <path fill="#f24013" d="M9.663 4.316l-.298.299 2.543.22 1.53-1.536c.238-.24.675-.598 1.311-.997.636-.399 1.053-.518 1.212-.359.437.439 0 1.296-1.311 2.592L13.14 6.05l.218 2.552.298-.28c.239-.258.497-.258.696-.059.238.24.139.578-.338 1.057l-.477.498.239 1.715.337-.36c.219-.239.457-.239.676-.04.238.24.199.54-.12.858l-.715.718c.279 1.914.318 2.99.1 3.21-.1.08-.239.159-.437.199-.18.02-.338 0-.438-.08-.079-.1-.198-.458-.317-1.076-.14-.638-.477-1.715-1.073-3.23-.576-1.535-.994-2.392-1.192-2.612-.08-.08-.2-.08-.338 0-.14.06-.636.479-1.43 1.256-.795.798-1.53 1.436-2.226 1.934-.02.12.04.518.14 1.176.098.658.138 1.097.118 1.256-.04.16-.198.379-.457.638-.139.14-.238.22-.337.24-.259-.26-.656-1.097-1.193-2.473-1.49-.658-2.304-1.076-2.463-1.236 0-.08.08-.199.218-.339.259-.259.477-.418.656-.438.159-.04.576.02 1.232.14.655.1 1.053.139 1.192.139.477-.718 1.37-1.774 2.762-3.17.397-.438.516-.718.377-.857-.199-.22-1.073-.618-2.583-1.196-1.53-.578-2.583-.957-3.218-1.077-.636-.14-.994-.24-1.073-.339-.1-.08-.12-.239-.08-.438.02-.2.1-.34.199-.439.199-.2 1.271-.18 3.199.1l.695-.718c.318-.299.616-.339.854-.1.219.2.2.439-.02.658l-.357.34 1.709.238.476-.458c.477-.479.815-.578 1.054-.339.218.22.198.439-.04.698z" transform="translate(-271.000000, -1844.000000) translate(271.000000, 1844.000000)"/>
            </g>
        </g>
    </g>
</svg>
