<svg xmlns="http://www.w3.org/2000/svg" width="32" height="32" viewBox="0 0 32 32">
    <g fill="none" fill-rule="evenodd">
        <g fill="#000000">
            <g>
                <path fill="#ffffff" d="M12.667 24c1.104 0 2 .895 2 2s-.896 2-2 2c-1.105 0-2-.895-2-2s.895-2 2-2zm10.666 0c1.105 0 2 .895 2 2s-.895 2-2 2c-1.104 0-2-.895-2-2s.896-2 2-2zM6.25 4.667c.906 0 1.694.608 1.93 1.472l.028.12 2.67 12.816c.185.887.94 1.533 1.835 1.588l.123.004h11.429c.286 0 .537-.183.63-.448l.02-.074 2.075-9.334c.08-.36-.147-.715-.507-.795l-.071-.012-.073-.004H12c-.368 0-.667-.298-.667-.667 0-.342.258-.623.59-.662L12 8.667h14.338c.146 0 .291.016.434.047 1.04.231 1.709 1.233 1.54 2.271l-.022.116-2.074 9.333c-.194.875-.945 1.509-1.83 1.562l-.122.004H12.835c-1.528 0-2.853-1.037-3.229-2.505l-.034-.148L6.902 6.53c-.06-.284-.293-.493-.575-.526L6.25 6H3.333c-.368 0-.666-.298-.666-.667 0-.342.257-.623.589-.662l.077-.004H6.25z" transform="translate(-271.000000, -1800.000000) translate(271.000000, 1800.000000)"/>
            </g>
        </g>
    </g>
</svg>
