<svg xmlns="http://www.w3.org/2000/svg" viewBox="0 0 440 110">
  <path fill="#073772" d="M355.206 44.718c-9.5 0-15.7 4.6-15.7 17v20.2c0 11 5.4 15.9 17.3 15.9h29.5v-9.5h-24.9c-5.6 0-7.7-2.1-7.7-7.7v-2.8h19c9.5 0 15.7-4.1 15.7-16.6 0-12.4-6.2-16.6-15.7-16.6h-17.5zm13.2 9.5c3.6 0 5.7.8 5.7 7.1s-2.1 7.1-5.7 7.1h-14.5v-6.6c0-6.3 2.1-7.6 5.7-7.6zm68.6-9.5h-45.9v9.5h15.8v43.6h14.3v-43.6h15.8zm-112.7 53.1h15.6s-23.4-27.9-24.4-29.1c1.1-1.1 22.9-24 22.9-24h-13.4l-17.3 18v-18h-13.3v53.1h13.3v-20zm-147.7-53.1h-39.1c-10.5 0-16.1 5.5-16.1 15.9v37.2h14.3v-34.4c0-6.9 2.1-9.2 8.2-9.2h5.9v43.6h14.3v-43.6h5.9c6.1 0 8.2 2.3 8.2 9.2v34.4h14.3v-37.2c.1-10.4-5.4-15.9-15.9-15.9m98.1 0c-12 0-17.3 4.9-17.3 15.9v37.2h14.3v-35.9c0-5.6 2.1-7.7 7.7-7.7h9.6v-9.5zm-26.8 53.1v-37.2c0-11-5.3-15.9-17.3-15.9h-27.2v9.5h22.5c5.6 0 7.7 2.1 7.7 7.7v1.8h-19c-9.5 0-15.7 4.6-15.7 17s6.2 17 15.7 17h33.3zm-28.9-9.4c-3.6 0-5.7-1.2-5.7-7.6 0-6.3 2.1-7.6 5.7-7.6h14.6v15.1h-14.6z"/>
  <path fill="#49ad4a" d="M94.906 9.718c6.6 3.8 9.1 7.4 9.1 12 0 6.2-5 11.2-11.2 11.2-4 0-6.5-2-10.2-4.2-4.6-2.7-11.1-5.6-19.5-5.6-18.2 0-34.2 12.2-34.2 33 0 17.4 14.9 31.6 32.9 31.6 11.5 0 17.7-3 21.1-4.8v-15.4h-22v-22.8h32.8c8.3 0 14.3 5.2 14.3 13.9v28.8c0 5.4-1 7.5-5.7 10.5-7.4 4.7-21.3 11.2-41.2 11.2-32.2 0-58.9-22-58.9-53 0-31.8 24.8-54.4 60.4-54.4 13.2.1 23.8 3.1 32.3 8"/>
  <path fill="#073772" d="M72.206 56.218c0 6.3-5.1 11.4-11.4 11.4-6.3 0-11.4-5.1-11.4-11.4 0-6.3 5.1-11.4 11.4-11.4 6.3-.1 11.4 5 11.4 11.4"/>
</svg>