<svg xmlns="http://www.w3.org/2000/svg" width="32" height="32" viewBox="0 0 32 32">
    <g fill="none" fill-rule="evenodd">
        <g fill="#000000">
            <g>
                <path fill="#ffffff" d="M16 3.867c7.335 0 13.333 4.798 13.333 10.8 0 1.722-.497 3.386-1.435 4.885-.196.312-.607.407-.92.211-.311-.195-.406-.606-.21-.918.808-1.291 1.232-2.711 1.232-4.178C28 9.475 22.656 5.2 16 5.2S4 9.475 4 14.667c0 5.191 5.344 9.466 12 9.466 1.762 0 3.47-.3 5.033-.872.168-.062.351-.053.51.021l.078.043 3.818 2.435-.738-2.216c-.108-.324.047-.673.35-.814l.072-.03c.324-.107.673.048.814.35l.029.073 1.333 4c.19.571-.41 1.069-.927.809l-.064-.037-5.13-3.272-.03.011c-1.5.508-3.11.79-4.765.828l-.383.005c-7.335 0-13.333-4.799-13.333-10.8 0-6.002 5.998-10.8 13.333-10.8zM10.667 14c.736 0 1.333.597 1.333 1.333 0 .737-.597 1.334-1.333 1.334-.737 0-1.334-.597-1.334-1.334 0-.736.597-1.333 1.334-1.333zM16 14c.736 0 1.333.597 1.333 1.333 0 .737-.597 1.334-1.333 1.334s-1.333-.597-1.333-1.334c0-.736.597-1.333 1.333-1.333zm5.333 0c.737 0 1.334.597 1.334 1.333 0 .737-.597 1.334-1.334 1.334-.736 0-1.333-.597-1.333-1.334 0-.736.597-1.333 1.333-1.333z" transform="translate(-315.000000, -1799.000000) translate(315.000000, 1799.000000)"/>
            </g>
        </g>
    </g>
</svg>
