<svg xmlns="http://www.w3.org/2000/svg" width="32" height="32" viewBox="0 0 32 32">
    <g fill="none" fill-rule="evenodd">
        <g fill="#000000">
            <g>
                <path fill="#ffffff" d="M16 2.667c7.364 0 13.333 5.97 13.333 13.333 0 3.6-1.434 6.974-3.937 9.46-.261.26-.683.258-.943-.003-.146-.147-.21-.346-.19-.538l.071.212c-.117-.38-.265-.749-.441-1.107-1.395-2.829-4.457-4.69-7.893-4.69-3.41 0-6.452 1.833-7.862 4.63-.127.25-.239.507-.336.768l-.008.023C9.94 26.768 12.826 28 16 28c1.567 0 3.091-.3 4.51-.876.342-.139.73.025.87.367.138.34-.027.73-.368.868-1.578.64-3.272.974-5.012.974-7.364 0-13.333-5.97-13.333-13.333C2.667 8.636 8.637 2.667 16 2.667zM16 4C9.373 4 4 9.373 4 16c0 2.927 1.048 5.61 2.79 7.692.05-.11.102-.22.157-.329 1.207-2.393 3.425-4.17 6.072-4.94-1.42-.959-2.352-2.582-2.352-4.423 0-2.946 2.387-5.333 5.333-5.333s5.333 2.387 5.333 5.333c0 1.841-.933 3.465-2.352 4.423 2.674.778 4.91 2.583 6.108 5.012.042.085.082.17.121.257C26.996 21.56 28 18.86 28 16c0-6.627-5.373-12-12-12zm0 6c-2.21 0-4 1.79-4 4s1.79 4 4 4 4-1.79 4-4-1.79-4-4-4z" transform="translate(-403.000000, -1800.000000) translate(403.000000, 1800.000000)"/>
            </g>
        </g>
    </g>
</svg>
