<svg xmlns="http://www.w3.org/2000/svg" width="32" height="32" viewBox="0 0 32 32">
    <g fill="none" fill-rule="evenodd">
        <g fill="#000000">
            <g>
                <path fill="#ffffff" d="M13.335 2.677c.911-.912 2.388-.912 3.3 0 .658.658.84 1.611.548 2.434l3.458 3.459.472-.472c.753-.753 1.958-.78 2.743-.081l.085.08c.75.75.78 1.948.09 2.733l-.09.096-.471.472 3.459 3.458c.784-.279 1.688-.126 2.34.46l.094.089c.878.878.91 2.283.094 3.2l-.094.1-7.071 7.07c-.912.912-2.39.912-3.3 0-.658-.658-.841-1.61-.549-2.433L15.04 19.94l-5.947 7.448c-.768.961-1.958 1.478-3.178 1.388l-.166-.016c-1.294-.154-2.315-1.174-2.469-2.469-.145-1.221.323-2.431 1.244-3.237l.128-.107L12.1 17l-3.403-3.403c-.784.279-1.688.125-2.34-.46l-.093-.089c-.879-.878-.91-2.283-.094-3.2l.094-.1 7.07-7.07zm13.67 13.67l-7.07 7.071c-.391.39-.391 1.024 0 1.415.366.366.945.389 1.338.068l.076-.068 7.07-7.071c.391-.391.391-1.024 0-1.415-.365-.366-.945-.389-1.337-.068l-.076.068zM16.4 6.212l-6.6 6.6 9.428 9.428 6.6-6.6L16.4 6.212zM5.484 23.988c-.644.515-.977 1.326-.88 2.145.081.683.62 1.22 1.302 1.302.771.092 1.535-.198 2.051-.77l.094-.11 6.04-7.565-1.042-1.043-7.565 6.041zM22.056 9.041l-.472.47.943.944.472-.472c.26-.26.26-.682 0-.942-.24-.24-.619-.26-.88-.056l-.063.056zm-7.778-5.422L7.207 10.69c-.39.391-.39 1.024 0 1.415.366.366.945.389 1.338.068l.076-.068 7.07-7.071c.391-.39.391-1.024 0-1.415-.365-.366-.945-.389-1.337-.068l-.076.068z" transform="translate(-359.000000, -1800.000000) translate(359.000000, 1800.000000)"/>
            </g>
        </g>
    </g>
</svg>
