<svg xmlns="http://www.w3.org/2000/svg" width="16" height="14">
  <g fill="none" fill-rule="evenodd">
    <path fill="#FADCB1" d="M.641 10.364h.639v.613h.645V9.151H.642zm1.915.615h-.631v1.22h.629v.613h1.288v.602h8.312v-.605h1.283v-.61h.638v-1.22h.64v-.611h.643V9.147h-1.285v1.217h-.634V8.536h-.64v-.613h.64v-.609h-.643v-.611h-.64v-.615h-1.279V4.873h-.645v1.215H7.685V4.875h-.649v1.217h-.638v.609H5.119v.613H4.48v.609H3.197v.611h-.636z"/>
    <path fill="#231916" d="M3.197 9.761h1.287V8.534H3.197zm8.331-.013h1.276V8.531h-1.276z"/>
    <path fill="#D1605D" d="M3.203 12.19h.637v-1.826h-.637z"/>
    <path fill="#D1605D" d="M2.561 11.579h1.913v-.6H2.561zm9.6.611h.633v-1.823h-.633z"/>
    <path fill="#D1605D" d="M11.527 11.579h1.912v-.596h-1.912z"/>
    <path fill="#FEFEFE" d="M3.854 9.138h.634v-.605h-.634zm8.324-.008h.634v-.605h-.634z"/>
    <path fill="#080203" d="M5.757 11.637h.636v-.606h-.636zm.636.618h3.205v-.618H6.393zm3.219-.618h.623v-.613h-.623z"/>
    <path fill="#EFBF84" d="M0 10.442h.642V9.151H0z"/>
    <path fill="#EFBF84" d="M0 10.977h1.28v-.613H0zm1.28 1.222h.645v-1.222H1.28zm.645.613h.629v-.613h-.629zm.629.602h1.288v-.602H2.554z"/>
    <path fill="#EFBF84" d="M3.839 14h8.322v-.619H3.839z"/>
    <path fill="#EFBF84" d="M12.154 13.384h1.283v-.575h-1.283zm1.283-.574h.638v-.611h-.638zm.638-.611h.64v-1.22h-.64zm.64-1.22h.643v-.611h-.643z"/>
    <path fill="#EFBF84" d="M15.355 10.377h.64V8.533h-.64z"/>
    <path fill="#5B371A" d="M4.485 0v1.214H2.568v1.219h-.644v1.229H.649v1.214H.003v4.28H1.92v1.824h.646V8.539h.632v-.616h1.287V7.32h.632v-.612h1.287v-.613h.633V4.88h.645v1.215h2.558V4.878h.634v1.215h1.285v.615h.632v.612h.646v.609h-.645v.608h.645v1.832h.641l.004-1.214h1.271v-.616H16V4.267h-1.284V3.046h-.635V1.832h-1.289v-.614h-1.274V0z"/>
  </g>
</svg>
